<svg width="25" height="25" viewBox="0 0 25 25" fill="none" xmlns="http://www.w3.org/2000/svg">
<g clip-path="url(#clip0_1_454)">
<path d="M24.7321 18.9594C23.8014 17.2001 20.5697 15.2925 20.4274 15.209C20.0122 14.9727 19.5788 14.8475 19.1733 14.8475C18.5703 14.8475 18.0768 15.1237 17.7778 15.6261C17.3051 16.1916 16.7188 16.8525 16.5765 16.9549C15.4754 17.702 14.6133 17.6172 13.6595 16.6634L8.33621 11.3396C7.38843 10.3918 7.3013 9.51912 8.0433 8.42396C8.14712 8.28075 8.80801 7.69401 9.37343 7.22082C9.73401 7.00624 9.98149 6.68737 10.0899 6.29621C10.2341 5.77575 10.1279 5.16352 9.78777 4.56704C9.70759 4.42986 7.79906 1.19768 6.04069 0.267516C5.71256 0.0937184 5.34271 0.00195312 4.97195 0.00195312C4.3611 0.00195312 3.78641 0.240172 3.35447 0.671654L2.1782 1.84745C0.317873 3.70732 -0.355535 5.8156 0.175591 8.11344C0.618659 10.0285 1.90986 12.0663 4.01397 14.1699L10.8292 20.9851C13.4922 23.6482 16.031 24.9987 18.3752 24.9987C18.3752 24.9987 18.3752 24.9987 18.3757 24.9987C20.0998 24.9987 21.707 24.266 23.1517 22.8214L24.3275 21.6456C25.0421 20.9314 25.2043 19.8515 24.7321 18.9594Z" fill="black"/>
</g>
<defs>
<clipPath id="clip0_1_454">
<rect width="25" height="25" fill="white"/>
</clipPath>
</defs>
</svg>
